<?xml version="1.0" encoding="UTF-8" standalone="no"?><!DOCTYPE svg PUBLIC "-//W3C//DTD SVG 1.1//EN" "http://www.w3.org/Graphics/SVG/1.1/DTD/svg11.dtd"><svg width="100%" height="100%" viewBox="0 0 113 111" version="1.1" xmlns="http://www.w3.org/2000/svg" xmlns:xlink="http://www.w3.org/1999/xlink" xml:space="preserve" xmlns:serif="http://www.serif.com/" style="fill-rule:evenodd;clip-rule:evenodd;stroke-linejoin:round;stroke-miterlimit:2;"><path d="M40.666,91.153c-0.014,-2.755 0.074,-5.731 0.326,-8.809c0.485,-5.915 2.52,-28.619 18.394,-48.925c17.855,-22.84 43.474,-27.319 48.237,-28.296c-9.399,3.355 -34.604,12.747 -47.739,42.08c-2.938,6.563 -6.733,16.891 -8.643,34.283c-1.091,9.941 -0.907,17.014 -0.868,18.495c0.121,4.633 0.497,5.314 -0.081,6.708c-1.068,2.577 -4.324,3.49 -6.523,1.863c-0.566,-0.418 -0.892,-0.895 -0.954,-0.986c-4.469,-6.528 -10.634,-16.067 -11.543,-17.474c-12.952,-20.04 -12.896,-20.071 -25.594,-40.274c4.459,5.314 8.998,10.562 13.457,15.876c5.765,6.87 11.504,13.763 17.217,20.678c1.359,1.645 2.862,3.195 4.314,4.781Z" style="fill:#1ae631;"/></svg>