<?xml version="1.0" encoding="UTF-8" standalone="no"?><!DOCTYPE svg PUBLIC "-//W3C//DTD SVG 1.1//EN" "http://www.w3.org/Graphics/SVG/1.1/DTD/svg11.dtd"><svg width="100%" height="100%" viewBox="0 0 147 116" version="1.1" xmlns="http://www.w3.org/2000/svg" xmlns:xlink="http://www.w3.org/1999/xlink" xml:space="preserve" xmlns:serif="http://www.serif.com/" style="fill-rule:evenodd;clip-rule:evenodd;stroke-linejoin:round;stroke-miterlimit:2;"><g><path d="M141.309,110.849c-3.413,-6.825 -11,-20.73 -36.995,-40.912c-9.942,-7.719 -19.963,-14.336 -29.477,-20.832c-1.383,-0.944 -17.878,-12.266 -32.501,-21.647c-15.789,-10.129 -21.245,-13.259 -21.391,-13.346c-2.834,-1.688 -8.677,-5.275 -15.4,-8.98c10.596,3.572 20.465,7.663 22.22,8.39c11.802,4.892 25.043,10.775 39.879,19.291c2.83,1.625 13.349,7.512 25.007,16.672c0.684,0.538 7.543,6.046 12.145,10.272c6.655,6.112 25.766,23.956 34.455,45.277c1.107,2.717 1.913,5.343 2.058,5.815Z" style="fill:#f00;"/><path d="M5.545,110.849c2.761,-8.999 9.87,-25.605 32.562,-47.384c17.034,-16.349 32.085,-25.268 35.041,-27.091c2.26,-1.394 9.168,-5.382 12.065,-6.926c9.47,-5.045 19.844,-10.349 40.321,-18.548c0.028,-0.011 3.256,-1.267 7.155,-2.706c4.881,-1.802 7.926,-2.829 8.62,-3.062c-1.656,0.916 -7.984,4.416 -20.392,11.989c-9.137,5.577 -24.802,15.709 -31.803,20.442c-1.11,0.75 -3.973,2.564 -9.889,6.651c-0.692,0.477 -14.676,9.971 -15.952,10.838c-17.339,11.772 -39.714,27.889 -52.41,46.696c-3.098,4.59 -4.385,7.235 -5.318,9.101Z" style="fill:#f00;"/></g></svg>