<?xml version="1.0" encoding="UTF-8" standalone="no"?><!DOCTYPE svg PUBLIC "-//W3C//DTD SVG 1.1//EN" "http://www.w3.org/Graphics/SVG/1.1/DTD/svg11.dtd"><svg width="100%" height="100%" viewBox="0 0 208 206" version="1.1" xmlns="http://www.w3.org/2000/svg" xmlns:xlink="http://www.w3.org/1999/xlink" xml:space="preserve" xmlns:serif="http://www.serif.com/" style="fill-rule:evenodd;clip-rule:evenodd;stroke-linejoin:round;stroke-miterlimit:2;"><path d="M117.168,1.851c-8.842,-1.148 -17.796,-1.148 -26.638,-0l-2.321,26.36c-7.46,1.531 -14.655,4.15 -21.354,7.772l-18.722,-18.701c-7.512,4.804 -14.371,10.559 -20.406,17.123l15.166,21.684c-4.731,5.969 -8.559,12.6 -11.362,19.681l-26.363,-2.292c-2.666,8.508 -4.221,17.326 -4.625,26.233l25.556,6.863c0.213,7.613 1.542,15.153 3.946,22.38l-21.668,15.19c3.427,8.231 7.904,15.986 13.319,23.069l23.989,-11.17c5.056,5.695 10.922,10.617 17.408,14.607l-6.835,25.564c7.917,4.103 16.33,7.166 25.032,9.111l11.197,-23.976c7.534,1.112 15.19,1.112 22.724,-0l11.197,23.976c8.702,-1.945 17.115,-5.008 25.032,-9.111l-6.835,-25.564c6.486,-3.99 12.352,-8.912 17.408,-14.607l23.989,11.17c5.415,-7.083 9.892,-14.838 13.319,-23.069l-21.668,-15.19c2.404,-7.227 3.733,-14.767 3.946,-22.38l25.556,-6.863c-0.404,-8.907 -1.959,-17.725 -4.625,-26.233l-26.363,2.292c-2.803,-7.081 -6.632,-13.712 -11.362,-19.681l15.166,-21.684c-6.035,-6.564 -12.894,-12.319 -20.406,-17.123l-18.722,18.701c-6.699,-3.622 -13.894,-6.241 -21.354,-7.772l-2.321,-26.36Zm-13.319,71.474c17.152,0 31.077,13.925 31.077,31.078c0,17.152 -13.925,31.077 -31.077,31.077c-17.152,-0 -31.077,-13.925 -31.077,-31.077c-0,-17.153 13.925,-31.078 31.077,-31.078Z" style="fill:#dae61a;"/></svg>