<?xml version="1.0" encoding="UTF-8" standalone="no"?><!DOCTYPE svg PUBLIC "-//W3C//DTD SVG 1.1//EN" "http://www.w3.org/Graphics/SVG/1.1/DTD/svg11.dtd"><svg width="100%" height="100%" viewBox="0 0 208 206" version="1.1" xmlns="http://www.w3.org/2000/svg" xmlns:xlink="http://www.w3.org/1999/xlink" xml:space="preserve" xmlns:serif="http://www.serif.com/" style="fill-rule:evenodd;clip-rule:evenodd;stroke-linejoin:round;stroke-miterlimit:2;"><path d="M117.168,1.853c-8.842,-1.148 -17.796,-1.148 -26.638,0l-2.321,26.36c-7.46,1.531 -14.655,4.15 -21.354,7.772l-18.722,-18.701c-7.512,4.804 -14.371,10.56 -20.406,17.123l15.166,21.685c-4.731,5.968 -8.559,12.599 -11.362,19.68l-26.363,-2.292c-2.666,8.509 -4.221,17.326 -4.625,26.234l25.556,6.863c0.213,7.612 1.542,15.153 3.946,22.379l-21.668,15.19c3.427,8.232 7.904,15.986 13.319,23.069l23.989,-11.17c5.056,5.695 10.922,10.617 17.408,14.608l-6.835,25.563c7.917,4.104 16.33,7.166 25.032,9.111l11.197,-23.976c7.534,1.112 15.19,1.112 22.724,-0l11.197,23.976c8.702,-1.945 17.115,-5.007 25.032,-9.111l-6.835,-25.563c6.486,-3.991 12.352,-8.913 17.408,-14.608l23.989,11.17c5.415,-7.083 9.892,-14.837 13.319,-23.069l-21.668,-15.19c2.404,-7.226 3.733,-14.767 3.946,-22.379l25.556,-6.863c-0.404,-8.908 -1.959,-17.725 -4.625,-26.234l-26.363,2.292c-2.803,-7.081 -6.632,-13.712 -11.362,-19.68l15.166,-21.685c-6.035,-6.563 -12.894,-12.319 -20.406,-17.123l-18.722,18.701c-6.699,-3.622 -13.894,-6.241 -21.354,-7.772l-2.321,-26.36Zm-13.319,71.475c17.152,-0 31.077,13.925 31.077,31.077c0,17.152 -13.925,31.077 -31.077,31.077c-17.152,0 -31.077,-13.925 -31.077,-31.077c-0,-17.152 13.925,-31.077 31.077,-31.077Z" style="fill:#f20d0d;"/></svg>